<svg xmlns="http://www.w3.org/2000/svg" viewBox="0 0 64 64" width="64" height="64">
  <defs>
    <linearGradient id="goldGrad" x1="0%" y1="0%" x2="100%" y2="100%">
      <stop offset="0%" stop-color="#E8C84A"/>
      <stop offset="50%" stop-color="#D4AF37"/>
      <stop offset="100%" stop-color="#C5A059"/>
    </linearGradient>
  </defs>

  <!-- Rounded background -->
  <rect width="64" height="64" rx="14" fill="#0D3A35"/>

  <!-- Tooth icon centered -->
  <g transform="translate(12, 6) scale(0.65)">
    <path d="
      M 22 4
      C 12 4, 4 12, 4 24
      C 4 32, 8 36, 12 40
      C 14 42, 14 52, 12 62
      C 11 66, 13 68, 15 66
      C 17 64, 19 56, 20 48
      C 21 44, 23 44, 24 48
      C 25 56, 27 64, 29 66
      C 31 68, 33 66, 32 62
      C 30 52, 30 42, 32 40
      C 36 36, 40 32, 40 24
      C 40 12, 32 4, 22 4 Z
    " fill="url(#goldGrad)"/>
    <ellipse cx="18" cy="20" rx="6" ry="8" fill="white" opacity="0.15"/>
  </g>

  <!-- Crown above tooth -->
  <g transform="translate(22, 6)">
    <path d="M 0 8 L 3 2 L 6 5 L 10 0 L 14 5 L 17 2 L 20 8 Z" fill="url(#goldGrad)"/>
  </g>
</svg>
